<svg xmlns="http://www.w3.org/2000/svg" height="142.683" width="252.088"><path d="M153.044 61.871c-6.019 2.882-11.031 5.17-15.768 7.2l-1.275.545c-5.011 2.142-10.194 4.356-14.563 7.216l-.578.376c-2.088 1.353-4.948 3.206-5.342 5.212a3.058 3.058 0 00.538 2.225 10.044 10.044 0 018.045 2.52c3.238 3.029 3.635 7.212 3.985 10.9.084.878.166 1.75.284 2.6a23.3 23.3 0 01.13 2.994c.007 1.994.018 4.727 1 5.261 1.769.961 6.617-2.463 8.948-4.109.765-.54 1.44-1.017 1.976-1.352a887.7 887.7 0 0014.187-9.082v-.034c1.877-15.891 2.073-26.791 1.317-33.772-.972.424-1.94.849-2.884 1.3z" fill="#fdbe2a"/><path d="M125.901 101.015c-.124-.887-.21-1.8-.3-2.708-.339-3.566-.658-6.933-3.206-9.317-3.7-3.466-9.411-1.62-13.547.536-9.249 4.821-13.019 13.885-16.088 22.755-.307.885-.606 1.777-.907 2.671a86.956 86.956 0 01-4.195 10.828 17.648 17.648 0 01-1.594 2.714c1.757 5.353 5.089 9.229 9.459 10.923 10.141 3.932 22.954-4.669 28.57-19.16a38.33 38.33 0 002.537-11.164 15.867 15.867 0 01-.626-5.419 22.19 22.19 0 00-.103-2.659zm-9.345 16.316c-2.61 6.734-8.152 11.139-13.374 11.139a8.746 8.746 0 01-3.183-.589c-5.977-2.316-8.277-10.818-5.125-18.953a19.112 19.112 0 017.036-9.1c3.168-2.086 6.549-2.6 9.521-1.449s5.124 3.811 6.06 7.487a19.113 19.113 0 01-.935 11.465z" fill="#555556"/><path d="M172.902 58.811a54.23 54.23 0 00-6.6 2.84 24.975 24.975 0 01-3.1 1.425c-.174.185-.255.375-.231.432.172.381 1.093.624 4.525-.408.289-.087.542-.163.743-.216.374-.1.861-.209 1.419-.335 1.987-.449 7.267-1.639 7.522-3.28.133-.851 0-1.216-.094-1.29-.617-.498-3.302.503-4.184.832z" fill="#e6e7e8"/><path d="M196.444 66.511c.729-4-.849-7.763-3.453-8.42a39.066 39.066 0 00-1.174 6.337c-.433 3.358-.852 6.525-2.066 8.652.091.025.177.066.269.083 2.747.493 5.674-2.548 6.424-6.652zM110.526 100.706a6.412 6.412 0 00-2.326-.428 9.039 9.039 0 00-4.923 1.635 16.613 16.613 0 00-6.082 7.919c-2.654 6.853-.994 13.908 3.7 15.728s10.676-2.277 13.331-9.128a16.6 16.6 0 00.842-9.949c-.729-2.873-2.343-4.925-4.542-5.777z" fill="#fff"/><path d="M202.621 60.314a9.953 9.953 0 00.017-2.443c-.39-2.381-1.94-7.383-3.126-8.244a1.572 1.572 0 00-1.446-.383c-1.721.508-3.294 4.171-4.2 6.481 3.754 1.134 5.991 5.993 5.035 11.234-.927 5.065-4.516 8.75-8.291 8.75a5.754 5.754 0 01-1.034-.093 5.858 5.858 0 01-1.535-.536 31.1 31.1 0 01-5.257 3.393 9.074 9.074 0 005.6 3.662c6.3 1.159 12.785-5.336 14.45-14.457a23.97 23.97 0 00.349-3.317 1.233 1.233 0 01-.516-.772 11.359 11.359 0 01-.046-3.275z" fill="#555556"/><path d="M176.232 52.871c-.612.27-1.2.53-1.763.747-2.44.947-4.973 1.849-7.422 2.722-2.9 1.033-5.858 2.1-8.753 3.261.87 6.762.8 17.192-.974 33 7.271-4.8 13.883-9.36 20.135-13.883a20.353 20.353 0 011.732-1.1 1.107 1.107 0 01.031-.177c.029-.289.061-.659.068-.748.023-.271.023-.551.024-.832 0-.393.005-.789.044-1.169.2-1.948 1.125-10.556 1.485-12.91 1.117-7.274.561-9.927.2-10.452a15.171 15.171 0 00-4.807 1.541zm3.406 6.782c-.516 3.317-5.885 4.527-9.437 5.328-.523.119-.979.221-1.328.314-.182.047-.406.116-.664.193a15.6 15.6 0 01-4.258.832 3.237 3.237 0 01-3.259-1.788 3.022 3.022 0 011.129-3.566 1.24 1.24 0 01.565-.247 21.74 21.74 0 002.732-1.266 56.113 56.113 0 016.87-2.962c2.114-.789 4.954-1.846 6.668-.444.909.742 1.24 1.955.982 3.606z" fill="#fdbe2a"/><path d="M66.188 124.967a89.707 89.707 0 00-8.754-3.281 67.108 67.108 0 01-12.536-5.194c-2.28-1.313-5.089-2.733-8.064-4.238-11.652-5.893-26.626-13.473-30.771-24.7-2.469 2.075-3.3 5.3-2.57 10.123.6 3.991 13.561 14.49 18.44 18.443 17.655 14.047 51.821 20.651 54.731 20.171a7.047 7.047 0 002.655-2.86c.426-.81.97-1.629 1.495-2.422.137-.2.257-.4.388-.6a18.611 18.611 0 01-2.634-.642 107.738 107.738 0 01-12.38-4.8zM213.878 50.96a3.253 3.253 0 00-.576-3.136 2.393 2.393 0 00-2.4-.234 1.246 1.246 0 01-.21.026c.094.987.149 1.957.157 2.885a28.856 28.856 0 01-.51 5.672c1.727-.581 2.823-2.203 3.539-5.213z" fill="#fff"/><path d="M153.526 26.316c1.658-.318 3.27-.6 4.859-.836 3.294-.488 6.244.167 9.363.861.355.079.821.172 1.407.289 10.779 2.154 15.618 3.955 16.707 6.218a2.4 2.4 0 01-.03 2.188c-.705 1.364-2.879 2.588-5.436 3.934-.362.191-.678.357-.914.49-2.42 1.365-4.972 2.573-7.438 3.741l-2.241 1.067a64.669 64.669 0 01-10.374 3.64c-1.568.451-3.158.935-4.733 1.453 1.288 1.337 2.439 3.717 3.2 7.713 2.763-1.093 5.563-2.1 8.314-3.084 2.477-.882 4.945-1.76 7.357-2.7.526-.2 1.083-.45 1.66-.7a16.308 16.308 0 015.863-1.755 2.312 2.312 0 011.775.8c.5.566 2.013 2.291.44 12.531-.331 2.161-1.231 10.434-1.469 12.783-.031.3-.03.616-.031.93 0 .1-.008.2-.01.295 2.28-1.257 4.841-2.749 5.724-4.19 1.025-1.672 1.432-4.823 1.827-7.871a35.288 35.288 0 011.5-7.468 1.22 1.22 0 01.237-.646l.167-.426c1.2-3.108 3.021-7.8 6.114-8.716a4.032 4.032 0 013.617.757c2.354 1.708 3.912 8.578 4.122 9.86a11.972 11.972 0 01.006 3.061c-.035.406-.07.8-.083 1.191a1.577 1.577 0 01.109-.12c2.1-2.011 3.273-6.049 3.229-11.078-.057-6.472-2.1-12.854-4.982-15.519-5.367-4.969-15.168-9.066-21.931-11.064-4.986-1.475-10.929-2.906-17.155-2.35-4.65.414-9.53 1.082-14.782 2.019a6.968 6.968 0 013.609 1.957 2.777 2.777 0 01.403.745z" fill="#fdbe2a"/><path d="M153.479 47.144a122.489 122.489 0 015.262-1.632 62.957 62.957 0 009.981-3.491l2.253-1.073c2.429-1.15 4.939-2.339 7.283-3.66.252-.143.589-.32.976-.524 1.089-.573 3.981-2.1 4.383-2.874-.175-.546-1.995-2.226-14.95-4.815a58.689 58.689 0 01-1.4-.288c-3.07-.681-5.67-1.26-8.514-.84a113.16 113.16 0 00-4.845.835 47.147 47.147 0 01.218 4.777c.01 1.184.02 2.407.1 3.571a37.871 37.871 0 01-.642 9.6c-.028.156-.071.275-.105.414z" fill="#ed9b42"/><path d="M32.223 60.52c-1.186.692-1.805 1.181-1.839 1.455.017.149.479.446 1.372.876a9.432 9.432 0 01.917.485c1.731 1.1 11.351 6.443 14.405 7.637a57.848 57.848 0 007.067 2.173c2.238.556 4.221-.2 6.516-1.074.532-.2 1.071-.408 1.622-.6 4.232-1.481 22.084-6.8 26.865-7.951 2.747-.66 11-2.976 24.54-6.883l.432-.125c2.738-.789 5.6-1.4 8.371-1.988l2.46-.53c.444-.1.963-.185 1.517-.276 1.44-.24 3.411-.567 4.224-1.272.277-.24.253-.342.243-.391-.55-2.431-12.309-6.946-20.229-9.138-2.975-.824-6.1-1.4-9.117-1.966-1.847-.344-3.69-.687-5.516-1.084a30.907 30.907 0 00-4.967-.609c-.688-.036-2.893-.015-4.317.081a1.243 1.243 0 01-.339-.025 1.647 1.647 0 00-.323-.03 7.423 7.423 0 00-1.945.427c-.328.1-.648.2-.95.275-2.815.712-48.623 19.068-50.53 20.247-.136.085-.299.18-.479.286z" fill="#fdbe2a"/><path d="M127.042 42.938c9.05 2.561 17.607 4.983 21.533 4.527.49-.056.916-.08 1.287-.1a4.255 4.255 0 00.963-.108 2.611 2.611 0 00.31-1 35.234 35.234 0 00.6-8.949c-.087-1.243-.1-2.506-.108-3.727a41.2 41.2 0 00-.229-4.862c-.019-.145-.03-.3-.043-.457a1.161 1.161 0 01-.1-.232 1.22 1.22 0 01.018-.539.972.972 0 00-.116-.379c-.615-.779-2.979-1.287-4.248-1.56a39.36 39.36 0 01-.861-.192c-5.253-1.269-10.747-2.458-17.81-3.852-1.423-.281-2.839-.594-4.257-.905s-2.835-.625-4.261-.905c-3.621-.714-15.986-2.5-18.6-1.853-.794.2-1.354 1.02-2 1.97-.221.324-.444.648-.678.957-.811 1.063-1.569 2.169-2.325 3.275-1.049 1.531-2.132 3.114-3.357 4.58a59.556 59.556 0 00-4.807 7.412 36.3 36.3 0 013.722-.181c10.333-.001 23.501 3.724 35.367 7.08z" fill="#fff8e9"/><path d="M60.012 104.855a4.491 4.491 0 003.885-1.687 10.827 10.827 0 002.595-5.73c.683-4.455-1.129-8.586-3.957-9.02a3.273 3.273 0 00-.492-.037c-2.672 0-5.342 3.258-5.987 7.455a10.827 10.827 0 00.755 6.244 4.5 4.5 0 003.201 2.775zM7.181 74.066a3.973 3.973 0 003.423-1.494 9.709 9.709 0 002.323-5.138c.612-3.979-.987-7.666-3.492-8.05a2.849 2.849 0 00-.432-.033 4.213 4.213 0 00-2.991 1.527 10.481 10.481 0 00-1.648 10.736 3.961 3.961 0 002.817 2.452z" fill="#fff"/><path d="M15.392 67.813a12.211 12.211 0 01-2.965 6.46 6.691 6.691 0 01-4.51 2.287 1.228 1.228 0 01.057.755c-3.93 15.561 15.672 25.475 29.985 32.714 3.005 1.52 5.845 2.956 8.183 4.3a64.267 64.267 0 0012.085 4.991 91.79 91.79 0 018.995 3.375 105.256 105.256 0 0012.085 4.693c3.877 1.2 4.274 1.025 6.116-2.712a84.97 84.97 0 004.07-10.521c.3-.9.6-1.8.913-2.691 3.092-8.935 7.232-18.907 17.292-24.151a26.05 26.05 0 015.772-2.233 5.187 5.187 0 01-.4-3.139c.6-3.044 3.833-5.141 6.433-6.825l.568-.369c4.552-2.981 9.837-5.239 14.948-7.424l1.271-.543c4.706-2.018 9.687-4.294 15.676-7.161a86.59 86.59 0 013.614-1.616c-.8-4.781-2.151-7.131-3.684-7.576a14.194 14.194 0 01-1.137-.641c-.243.029-.494.052-.762.067-.33.018-.706.038-1.138.087a11.609 11.609 0 01-1.32.069c-4.653 0-12.369-2.182-21.177-4.674l-3.334-.939c9.27 3.813 10.245 6.7 10.336 7.108a2.8 2.8 0 01-1.04 2.823c-1.344 1.166-3.525 1.529-5.448 1.848-.509.085-.985.163-1.392.253l-2.476.533c-2.727.58-5.547 1.181-8.2 1.946l-.433.125c-13.573 3.917-21.865 6.242-24.648 6.911-4.737 1.138-22.429 6.412-26.625 7.88-.529.185-1.047.382-1.557.577a16.378 16.378 0 01-5.849 1.428 8.935 8.935 0 01-2.155-.264 60.533 60.533 0 01-7.374-2.27 164.5 164.5 0 01-14.836-7.856 7.008 7.008 0 00-.662-.342c-1.031-.5-2.589-1.248-2.768-2.854-.216-1.966 1.835-3.162 3.061-3.878l.41-.245c2.062-1.294 29.471-12.219 43.357-17.6-.734.161-1.48.318-2.205.479-2.58.573-5.164 1.146-7.782 1.656-2.1.409-4.238.671-6.308.925a55.4 55.4 0 00-9.357 1.683 649.41 649.41 0 00-9.045 2.831c-6.863 2.184-13.961 4.443-21.048 6.1l-1.586.361a40.3 40.3 0 00-7.857 2.334c.089.01.179.009.269.023 3.976.62 6.427 5.404 5.582 10.902zm38.2 27.644c.918-5.99 5.011-10.168 9.321-9.5s6.963 5.872 6.043 11.862a13.329 13.329 0 01-3.236 7.054 7.167 7.167 0 01-5.2 2.517 5.824 5.824 0 01-.891-.068 6.887 6.887 0 01-5.071-4.162 13.325 13.325 0 01-.966-7.703zM21.546 75.862a108.547 108.547 0 0111.938 7.035c1.91 1.239 3.885 2.52 5.87 3.715.339.205.718.425 1.12.66 3.111 1.814 7.374 4.3 8.4 7.559a13.525 13.525 0 01.507 5.278c-.023.494-.048 1.019-.056 1.6l-.005.434c-.015 1.825-.032 3.892-1.389 4.977a2.815 2.815 0 01-1.8.6 4.087 4.087 0 01-.878-.1 11.879 11.879 0 01-3.316-1.47l-.478-.273c-10.6-5.959-28.488-16.494-29.141-20.095-.456-2.509-1.133-7.122-.551-9.826a2.46 2.46 0 011.346-1.721c2.251-1.104 6.643.771 8.433 1.627z" fill="#fdbe2a"/><path d="M14.207 76.478c-.354 1.643-.143 4.954.565 8.856.667 1.889 12.669 9.8 27.91 18.366l.5.285a9.892 9.892 0 002.6 1.2.892.892 0 00.593-.007c.43-.345.445-2.106.453-3.051l.005-.448c.008-.611.034-1.162.058-1.681a11.226 11.226 0 00-.394-4.414c-.738-2.339-4.674-4.635-7.278-6.153-.414-.241-.8-.467-1.151-.677-2.02-1.218-4.013-2.51-5.94-3.76a106.726 106.726 0 00-11.66-6.879c-3.174-1.527-5.762-1.977-6.261-1.637z" fill="#fff"/><g stroke="#3e4147" stroke-linecap="round" stroke-linejoin="round" transform="translate(-1278.744 -3918.169)"><path d="M1365.073 3954.551c-.4.069-2.6 1.087-3 1.153-6.358 1.062-12.49 2.666-18.825 3.9-5.24 1.022-10.693 1.1-15.786 2.639-9.973 3.013-19.917 6.548-30.018 8.911-5.775 1.351-12.744 2.415-15.707 8.235-2.281 4.482-1.174 13.327 3.769 15.789-5.032 19.924 25.207 30.6 38.755 38.4 6.882 3.962 14.156 5.218 21.185 8.421a106.685 106.685 0 0012.233 4.749c4.557 1.414 5.521.872 7.6-3.352a113.851 113.851 0 005.043-13.355c3.215-9.295 7.214-18.514 16.689-23.453 4.623-2.41 10.8-4.251 14.975-.342 3.6 3.368 3.27 8.342 3.887 12.764.383 2.745-.52 7.93 1.764 9.178 3.024 1.652 9.471-3.8 12.185-5.5 12.617-7.916 25.044-16.073 37.1-24.795 2.673-1.934 8.675-4.282 10.4-7.1 2.134-3.485 1.757-11.433 3.49-15.752 1.239-3.086 3.942-11.328 8.172-8.26 1.744 1.265 3.3 7.064 3.625 9.052.314 1.927-.357 3.745.02 5.682a1.906 1.906 0 002.1-.852c5.92-5.678 4.028-23.042-1.769-28.411-5.453-5.049-15.4-9.269-22.425-11.345-5.889-1.74-11.619-2.929-17.618-2.4a184.862 184.862 0 00-20.646 3.134" fill="none" stroke-width="2"/><path d="M1406.63 4027.265a39.7 39.7 0 01-2.628 11.611c-5.873 15.158-19.386 24.055-30.182 19.872-5.084-1.97-8.659-6.49-10.4-12.3" fill="none" stroke-width="2"/><ellipse cx="14.574" cy="10.379" fill="none" rx="14.574" ry="10.379" stroke-width="2" transform="rotate(-68.819 3634.674 1020.865)"/><path d="M1483.216 3981.553a25.012 25.012 0 01-.413 4.518c-1.792 9.814-8.911 16.735-15.9 15.459a10.791 10.791 0 01-7.183-5.318" fill="none" stroke-width="2"/><path d="M1470.812 3974.887a4.685 4.685 0 01.942.074c3.461.632 5.547 5.084 4.66 9.943s-4.413 8.286-7.873 7.654a4.747 4.747 0 01-1.942-.841" fill="none" stroke-width="2"/><ellipse cx="9.561" cy="6.526" fill="none" rx="9.561" ry="6.526" stroke-width="2" transform="rotate(-81.271 3010.129 1235.503)"/><ellipse cx="8.674" cy="5.92" fill="none" rx="8.674" ry="5.92" stroke-width="2" transform="rotate(-81.271 2966.129 1250.587)"/><path d="M1291.731 3994.385c-.511 2.378.075 6.678.558 9.34.64 3.529 26.91 18.322 28.526 19.231a13.251 13.251 0 003.446 1.612c2.689.582 2.53-2.478 2.562-4.708.036-2.547.375-4.041-.4-6.486-1.006-3.2-6.211-5.86-8.974-7.525-5.931-3.574-11.43-7.679-17.7-10.693-2.093-1.006-7.506-3.149-8.018-.771zM1365.449 3956.263c-1.192-.249-2.618.389-3.779.683-2.415.611-48.689 19.02-50.886 20.4-.887.557-3.045 1.577-2.9 2.929.136 1.228 2.009 1.742 2.858 2.282 1.766 1.123 11.5 6.528 14.621 7.746a59.372 59.372 0 007.221 2.221c3.187.792 5.822-.648 8.849-1.707 4.17-1.458 21.972-6.769 26.746-7.916 4.3-1.034 20.947-5.844 25.026-7.021 3.5-1.009 7.2-1.718 10.752-2.5 1.791-.393 4.877-.6 6.291-1.824 4.872-4.226-17.986-10.985-20.47-11.672-4.822-1.336-9.828-2.007-14.7-3.067a32.528 32.528 0 00-5.167-.637c-.78-.04-3.067-.01-4.462.083zM1284.523 4004.333c-3.7 2.681-4.232 6.992-3.52 11.7.554 3.658 8.377 10.708 18.889 19.224 18.6 14.8 53.97 21.188 55.863 20.4a8.032 8.032 0 003.411-3.471c.853-1.621 2.27-3.374 2.992-4.9" fill="none" stroke-width="2"/><path d="M1364.445 3955.8c17.813-3.56 52.779 12.249 63.017 11.071 2.372-.273 3.157.277 3.641-2.21a36.666 36.666 0 00.622-9.275c-.2-2.862.02-5.829-.344-8.66a4.493 4.493 0 00-.5-2.22c-1.064-1.347-4.311-1.833-5.8-2.191-5.966-1.442-11.847-2.677-17.861-3.864-2.849-.563-5.669-1.25-8.519-1.811-2.757-.543-16.02-2.619-19.146-1.838-1.606.4-2.361 2.055-3.371 3.379-1.951 2.557-3.593 5.352-5.648 7.813a65.251 65.251 0 00-6.1 9.806M1393.928 4003.781c-3.154-4.527 2.193-7.609 5.571-9.82 4.845-3.172 10.712-5.584 16.029-7.865 5.289-2.268 10.53-4.7 15.724-7.181 6.866-3.286 14.425-5.541 21.51-8.29 2.132-.828 4.763-2.32 7.1-2.375 2.715-.064 1.289 9.7.953 11.892-.347 2.266-1.265 10.746-1.477 12.845-.066.646-.013 1.339-.065 1.975-.016.2-.154 1.712-.123 1.022" fill="none" stroke-width="2"/><path d="M1441.331 3980.118a1.811 1.811 0 00-.758 2.071c.951 2.11 5.248.461 6.725.069 2.356-.624 9.4-1.7 9.852-4.629.671-4.3-3.611-2.684-5.982-1.8a54.585 54.585 0 00-6.716 2.892 18.929 18.929 0 01-3.121 1.397zM1430.989 3967.4c9.506 2.759 3.363 46.592 3.51 46.14M1430.505 3967.224c5.71-2.213 11.831-3.18 17.5-5.911 3.208-1.545 6.505-3.02 9.609-4.77 1.336-.754 5.141-2.533 5.853-3.911 1.818-3.521-14.46-6.286-17.191-6.893-3.044-.676-5.876-1.313-8.966-.857-2.054.3-4.078.664-6.087 1.069M1489.257 3964.576c3.485-1.161 5.354 1.584 4.578 4.842-.825 3.466-2.364 6.2-5.9 6.42" fill="none" stroke-width="2"/><path d="M1388.725 3979.614c9.117-2.31 18.137-8.191 26.494-12.3 12.546 12.974 20.12 29.227 31.116 43.009 9.863-29.032 30.033-57.78 33.564-88.784 14.717 1.921 34.465.435 49.433-1.869-14.4 32.221-66.843 119.305-66.843 119.305s-21.084 3.449-27.913 4.668c-10.771-22.56-29.955-39.574-45.851-64.029z" fill="#cedd3e" stroke-width="3"/></g></svg>
